<svg width="32" height="32" viewBox="0 0 32 32" fill="none" xmlns="http://www.w3.org/2000/svg">
  <defs>
    <linearGradient id="bg" x1="0%" y1="0%" x2="100%" y2="100%">
      <stop offset="0%" stop-color="#3B82F6"/>
      <stop offset="100%" stop-color="#1E40AF"/>
    </linearGradient>
  </defs>
  
  <!-- Background circle -->
  <circle cx="16" cy="16" r="15" fill="url(#bg)"/>
  
  <!-- Philippine islands silhouette -->
  <path d="M8 20c2-2 4-1 6 0s4 1 6-1c1-1 2-1 3 0v8H8v-7z" fill="#10B981" opacity="0.9"/>
  <path d="M10 18c1.5-1.5 3-1 4.5 0s3 1 4.5-0.5c1-1 2 0 2.5 0.5" fill="#34D399" opacity="0.8"/>
  
  <!-- Sun -->
  <circle cx="24" cy="8" r="3" fill="#F59E0B" opacity="0.9"/>
  
  <!-- Water waves -->
  <path d="M6 22c2-0.5 4 0.5 6 0.5s4-1 6-0.5s4 1 6 0.5" stroke="#93C5FD" stroke-width="1" fill="none"/>
  <path d="M6 25c2-0.3 4 0.3 6 0.3s4-0.6 6-0.3s4 0.6 6 0.3" stroke="#93C5FD" stroke-width="0.8" fill="none"/>
</svg>
